<?xml version="1.0" encoding="iso-8859-1"?>
<!-- Generator: Adobe Illustrator 19.1.0, SVG Export Plug-In . SVG Version: 6.00 Build 0)  -->
<svg version="1.1" id="Capa_1" xmlns="http://www.w3.org/2000/svg" xmlns:xlink="http://www.w3.org/1999/xlink" x="0px" y="0px"
	 viewBox="0 0 513.32 513.32" style="enable-background:new 0 0 513.32 513.32;" xml:space="preserve">
<g>
	<g>
		<g>
			<path d="M214.08,171.107c-27.805,0-55.61,10.694-74.859,32.083c-21.388,19.249-32.082,47.055-32.082,74.859
				s10.694,55.61,32.082,74.859c19.249,21.388,47.055,32.082,74.859,32.082s55.61-10.694,74.859-32.082
				c19.249-19.249,32.083-47.055,32.083-74.859s-10.694-55.61-32.083-74.859C269.69,181.801,241.885,171.107,214.08,171.107
				L214.08,171.107z M258.996,322.964c-23.527,23.527-66.304,23.527-89.831,0c-12.833-10.694-19.249-27.805-19.249-44.916
				s6.416-34.221,19.249-44.916c10.694-12.833,27.805-19.249,44.916-19.249s34.221,6.416,44.916,19.249
				c12.833,12.833,19.249,27.805,19.249,44.916S271.829,312.27,258.996,322.964z"/>
			<path d="M415.131,81.275C361.66,29.944,297.495,0,235.469,0C85.75,0,0.197,100.525,0.197,278.048
				c0,76.998,21.388,143.302,64.165,186.079c32.082,32.082,76.998,49.193,128.33,49.193c70.581,0,113.358-27.805,149.718-51.332
				c17.11-10.694,32.083-21.388,49.193-27.805c83.414-32.082,111.22-83.414,117.636-121.914
				C528.489,230.994,472.879,139.024,415.131,81.275z M468.601,303.715c-8.555,38.499-38.499,70.581-91.97,89.831
				c-21.388,8.555-38.499,19.249-57.749,32.082c-34.221,23.527-68.443,44.916-126.191,44.916c-40.638,0-72.72-12.833-98.386-38.499
				c-32.082-32.082-51.332-87.692-51.332-153.996c0-194.634,104.803-235.272,192.495-235.272
				c49.193,0,104.803,25.666,147.579,68.443C432.242,158.274,481.435,237.411,468.601,303.715z"/>
		</g>
	</g>
</g>
<g>
</g>
<g>
</g>
<g>
</g>
<g>
</g>
<g>
</g>
<g>
</g>
<g>
</g>
<g>
</g>
<g>
</g>
<g>
</g>
<g>
</g>
<g>
</g>
<g>
</g>
<g>
</g>
<g>
</g>
</svg>
